<svg width="500" height="500" viewBox="0 0 500 500" fill="none" xmlns="http://www.w3.org/2000/svg">
<g clip-path="url(#clip0_227_168)">
<path d="M300.581 351.226C348.679 303.127 348.679 225.145 300.581 177.048C252.484 128.95 174.502 128.95 126.403 177.048C78.3054 225.147 78.3051 303.129 126.403 351.226C174.5 399.324 252.482 399.324 300.581 351.226Z" fill="#C6DAFA"/>
<path d="M300.581 351.226C348.679 303.127 348.679 225.145 300.581 177.048C252.484 128.95 174.502 128.95 126.403 177.048C78.3054 225.147 78.3051 303.129 126.403 351.226C174.5 399.324 252.482 399.324 300.581 351.226Z" fill="#FFDBCB"/>
<path d="M468.401 439.723H35.359L61.472 425.023H442.288L468.401 439.723Z" fill="#FFA881"/>
<path d="M467.675 439.723H35.359V452.586H467.675V439.723Z" fill="#FF725E"/>
<path d="M291.021 415.547L89.2449 420.741L39.5129 283.147L241.289 277.952L291.021 415.547Z" fill="#424242"/>
<path d="M385.303 426.491L183.527 431.685L89.2369 420.436L291.013 415.242L385.303 426.491Z" fill="#333333"/>
<path d="M281.227 407.621L95.667 412.397L51.438 289.938L236.998 285.161L281.227 407.621Z" fill="#3484B9"/>
<path d="M89.2369 420.436L183.527 431.685L183.819 443.022L89.8949 430.246L89.2369 420.436Z" fill="#1A1A1A"/>
<path d="M183.527 431.685L385.303 426.491L385.522 434.994L183.819 443.022L183.527 431.685Z" fill="black"/>
<path d="M232.534 289.363L275.301 407.773L281.227 407.621L236.998 285.161L51.438 289.938L52.9 293.987L232.534 289.363Z" fill="#122138"/>
<path d="M39.513 283.147L38.288 284.764L89.895 430.246L89.237 420.436L39.513 283.147Z" fill="black"/>
<path d="M282.453 425.194L234.982 426.416L212.799 423.77L260.27 422.548L282.453 425.194Z" fill="#424242"/>
<path d="M350.019 0V90.671" stroke="#FFDBCB" stroke-opacity="0.4" stroke-miterlimit="10" stroke-linecap="round"/>
<path d="M316.236 138.242H385.646L350.298 99.3379L316.236 138.242Z" fill="#FFDBCB"/>
<path d="M359.167 84.77H342.029V110.134H359.167V84.77Z" fill="#FFDBCB"/>
<path d="M342.029 108.807L359.146 108.935L339.394 111.827L342.029 108.807Z" fill="#FFDBCB"/>
<path d="M210.69 122.693C210.69 122.693 217.874 155.215 206.486 151.739C195.098 148.262 194.09 122.21 194.09 122.21L210.69 122.693Z" fill="#1A1A1A"/>
<path d="M225.427 299.491C229.72 313.444 234.571 326.464 239.041 333.875C245.27 352.947 253.293 356.442 253.293 356.442L267.561 351.261C269.81 350.335 270.005 346.348 269.454 344.151L256.628 278.432L256.418 278.51" fill="#FCBC76"/>
<path d="M256.418 278.509L237.337 219.256C200.707 213.349 213.928 252.835 213.928 252.835C215.805 264.149 220.203 282.51 225.427 299.49" fill="white"/>
<path d="M263.069 276.8C263.069 276.8 237.663 272.115 225.799 290.642L231.135 304.64L232.797 304.697C245.014 305.118 257.032 301.523 267.012 294.463L263.069 276.8Z" fill="white"/>
<path d="M260.472 281.865C260.472 281.865 255.596 286.63 246.687 289.361C237.778 292.093 228.067 292.118 228.753 289.967C229.439 287.816 229.888 288.567 229.888 288.567L231.235 290.822C231.235 290.822 250.301 289.093 258.727 282.151L258.234 278.909C258.234 278.909 259.836 279.036 260.472 281.865Z" fill="#ADADAD"/>
<path d="M122.718 218.095L184.248 201.383L237.339 219.362L122.718 218.095Z" fill="white"/>
<path d="M241.469 408.644L241.229 373.11L243.093 315.249C244.65 293.441 240.33 236.919 228.298 218.663L198.139 208.129L195.055 213.38L190.12 216.449L167.629 206.007L125.784 217.478L136.086 411.355L241.469 408.644Z" fill="white"/>
<path d="M192.712 220.449C194.28 228.491 195.742 236.555 197.119 244.635C198.409 252.727 199.59 260.836 200.723 268.954C202.939 285.196 204.593 301.509 206.108 317.836C207.31 334.189 208.311 350.565 208.65 366.965C208.652 375.17 208.819 383.368 208.541 391.568C208.36 399.767 208.375 401.344 207.869 409.515L207.338 409.527C208.01 393.168 207.64 383.377 207.142 367.014C206.516 350.655 205.526 334.311 204.172 317.996C202.803 301.682 201.155 285.392 199.219 269.134C197.269 252.88 195.096 236.648 192.521 220.48L192.712 220.449Z" fill="#ADADAD"/>
<path d="M186.661 227.196C186.155 227.205 185.646 227 185.288 226.637C184.912 226.294 184.689 225.792 184.68 225.287C184.67 224.762 184.875 224.272 185.238 223.895C185.945 223.162 187.248 223.138 187.981 223.844C188.357 224.207 188.561 224.689 188.571 225.214C188.58 225.719 188.395 226.229 188.032 226.585C187.669 226.963 187.186 227.187 186.661 227.196Z" fill="#ADADAD"/>
<path d="M201.695 390.126C200.625 390.146 199.733 389.267 199.733 388.197C199.713 387.128 200.573 386.256 201.642 386.236C202.731 386.216 203.604 387.095 203.623 388.164C203.624 389.235 202.783 390.106 201.713 390.126C201.695 390.126 201.695 390.126 201.695 390.126ZM198.663 355.549C198.604 354.479 199.423 353.55 200.512 353.51C201.582 353.451 202.492 354.271 202.55 355.34C202.609 356.41 201.789 357.339 200.7 357.379C200.682 357.398 200.662 357.399 200.642 357.399C199.593 357.418 198.722 356.597 198.663 355.549ZM196.446 322.94C196.367 321.872 197.148 320.923 198.236 320.825C199.304 320.746 200.234 321.546 200.332 322.615C200.409 323.683 199.61 324.613 198.542 324.711C198.503 324.712 198.464 324.712 198.425 324.713C197.413 324.732 196.543 323.97 196.446 322.94ZM193.315 290.388C193.198 289.319 193.978 288.352 195.046 288.235C196.114 288.118 197.082 288.899 197.179 289.966C197.296 291.034 196.535 291.982 195.467 292.099C195.408 292.119 195.35 292.12 195.292 292.121C194.301 292.139 193.431 291.397 193.315 290.388ZM189.408 257.908C189.271 256.84 190.031 255.853 191.098 255.716C192.146 255.58 193.133 256.321 193.269 257.389C193.406 258.456 192.665 259.443 191.597 259.579C191.519 259.58 191.441 259.582 191.363 259.583C190.392 259.602 189.543 258.897 189.408 257.908Z" fill="#ADADAD"/>
<path d="M175.183 217.927L168.202 206.358L163.763 168.627L187.263 161.956L199.533 213.212C200.662 221.806 181.766 223.565 175.183 217.927Z" fill="#FCBC76"/>
<path d="M190.919 199.997C192.709 199.736 194.374 199.108 195.895 198.229L187.262 161.957L163.762 168.628L165.859 186.449L166.376 187.263L180.388 197.337C183.515 199.584 187.261 200.53 190.919 199.997Z" fill="#E3923C"/>
<path d="M195.632 197.177C202.151 196.59 207.521 191.496 208.945 184.548L213.203 163.78C213.798 160.879 213.87 157.901 213.41 154.976C211.704 144.137 209.358 132.534 206.893 126.39L206.52 123.412C202.005 112.16 191.168 112.077 180.025 113.081C167.793 114.182 163.968 123.475 162.674 136.782L155.816 143.642C155.231 149.657 156.496 155.744 159.413 160.951L169.63 180.713C170.176 181.77 170.944 182.698 171.88 183.433L185.262 193.942C188.262 196.357 191.95 197.509 195.632 197.177Z" fill="#FCBC76"/>
<path d="M162.188 165.295C162.188 165.295 166.867 143.721 165.323 134.772C165.323 134.772 208.056 146.17 212.05 125.038C212.05 125.038 216.521 110.471 201.466 110.6C186.027 110.732 153.027 106.319 153.614 132.861C154.366 166.842 162.188 165.295 162.188 165.295Z" fill="#1A1A1A"/>
<path d="M167.718 159.042C170.679 163.217 170.482 168.443 167.279 170.715C164.076 172.986 159.079 171.442 156.118 167.267C153.157 163.092 153.354 157.866 156.557 155.594C159.76 153.323 164.757 154.867 167.718 159.042Z" fill="#FCBC76"/>
<path opacity="0.67" d="M158.722 208.358L179.672 232.221L192.616 220.465L158.722 208.358Z" fill="#707070"/>
<path opacity="0.67" d="M206.553 209.787L200.466 226.278L203.516 226.347L206.553 209.787Z" fill="#707070"/>
<path opacity="0.67" d="M192.616 220.465L185.331 231.098L193.376 223.182L201.137 227.702L192.616 220.465Z" fill="#707070"/>
<path d="M196.381 200.246L201.056 200.35L197.987 208.305L196.381 200.246Z" fill="#ADADAD"/>
<path d="M201.056 200.35L206.553 209.787L201.369 227.863L192.616 220.465L201.056 200.35Z" fill="white"/>
<path d="M167.296 198.2L162.535 198.27C163.075 198.595 167.648 201.849 167.648 201.849L167.296 198.2Z" fill="#ADADAD"/>
<path d="M162.535 198.27L158.522 208.549L185.331 231.098L192.616 220.465L167.345 201.619" fill="white"/>
<path opacity="0.42" d="M222.657 342.501L136.78 340.513C136.42 319.17 137.23 269.212 131.842 246.829C131.842 246.829 128.558 220.739 119.265 223.246L107.807 298.174L107.55 379.082L116.589 364.906C123.409 373.886 142.752 385.63 153.881 384.531C212.55 378.734 241.363 358.53 241.363 358.53L222.657 342.501Z" fill="#707070"/>
<path d="M122.987 221.098C124.162 221.781 124.496 223.045 124.933 224.13C125.307 225.26 125.617 226.412 125.854 227.569C126.279 229.894 126.493 232.228 126.686 234.562C126.886 236.893 126.846 239.232 126.81 241.555C126.786 243.884 126.719 246.207 126.597 248.525C126.419 250.842 126.164 253.146 125.918 255.451C125.665 257.756 125.468 260.063 125.027 262.344C124.636 264.63 124.274 266.917 123.82 269.191C123.277 271.454 122.845 273.729 122.203 275.974L122.01 275.95C122.526 271.365 123.103 266.786 123.525 262.191C123.995 257.602 124.376 253.003 124.657 248.4C125.007 243.801 125.165 239.19 125.17 234.581C125.14 232.278 125.077 229.971 124.83 227.683C124.723 226.537 124.544 225.4 124.304 224.279C124.154 223.727 124.038 223.162 123.812 222.639C123.63 222.122 123.331 221.55 122.939 221.288L122.987 221.098Z" fill="#ADADAD"/>
<path d="M135.398 295.998L135.701 291.354C135.575 292.86 135.48 294.419 135.398 295.998Z" fill="#ADADAD"/>
<path d="M132.028 304.512C130.868 293.116 138.061 267.495 131.739 241.228C131.739 241.228 140.161 211.97 116.219 219.243C109.324 221.338 99.608 254.902 98.453 268.233L96.049 303.31C94.892 312.415 96.957 316.09 97.855 325.224" fill="white"/>
<path d="M97.855 325.223L103.168 373.793C103.616 376.459 105.639 380.793 108.342 380.868L147.828 379.039C147.828 379.039 134.448 328.269 132.029 304.512" fill="#FCBC76"/>
<path d="M119.54 364.501L132.807 334.822L222.554 336.899L223.299 366.452C223.299 366.452 113.217 396.596 119.54 364.501Z" fill="#FCBC76"/>
<path d="M160.249 335.457L151.316 334.334C151.316 334.334 219.398 368.436 223.78 366.442C232.923 362.283 241.919 357.002 241.919 357.002L222.553 336.899L160.249 335.457Z" fill="#E3923C"/>
<path d="M159.811 320.518C159.811 320.518 151.986 320.663 148.966 321.224C145.946 321.785 137.231 334.945 137.231 334.945L154.751 335.41L159.811 320.518Z" fill="#FCBC76"/>
<path d="M258.38 347.227L253.239 318.845L159.812 320.519L151.873 334.995C151.873 334.995 264.026 377.532 258.38 347.227Z" fill="#FCBC76"/>
<path d="M138.001 300.234C138.001 300.234 106.745 289.11 87.923 310.179L91.832 329.016L93.928 329.428C109.332 332.455 125.303 330.35 139.396 323.435L138.001 300.234Z" fill="white"/>
<path d="M133.676 306.125C133.676 306.125 126.521 311.171 114.669 312.816C102.816 314.461 90.498 312.512 91.807 309.925C93.115 307.338 93.531 308.382 93.531 308.382L94.778 311.516C94.778 311.516 119.305 313.214 131.404 306.132L131.441 301.921C131.441 301.921 133.447 302.41 133.676 306.125Z" fill="#ADADAD"/>
<path d="M236.728 255.955C237.933 259.852 238.836 263.889 239.632 267.975C240.06 270.005 240.373 272.087 240.744 274.143C241.074 276.218 241.372 278.308 241.683 280.391C241.94 282.5 242.221 284.597 242.458 286.715C242.662 288.849 242.917 290.958 243.063 293.118C243.412 297.412 243.656 301.755 243.6 306.238L243.421 306.321L239.896 281.22L236.549 256.036L236.728 255.955Z" fill="#ADADAD"/>
<path d="M218.695 319.489C218.695 319.489 238.17 305.704 250.424 305.477L264.041 315.849L262.373 335.945L247.967 320.801L218.695 319.489Z" fill="#FCBC76"/>
<path d="M125.785 217.48C127.85 220.295 129.476 223.391 130.79 226.59C132.139 229.782 133.172 233.092 134.036 236.44C134.796 239.812 135.51 243.201 135.756 246.657C135.922 248.377 135.988 250.107 136.076 251.827C136.036 253.564 136.037 255.289 135.865 257.022L135.671 257.04C135.297 253.65 134.872 250.265 134.269 246.909C133.715 243.544 132.954 240.218 132.149 236.908C131.34 233.597 130.406 230.317 129.337 227.08C128.258 223.85 127.07 220.643 125.612 217.568L125.785 217.48Z" fill="#ADADAD"/>
<path d="M116.02 225.65L115.336 246.595C115.139 253.564 114.887 260.523 114.943 267.48C114.827 274.432 114.992 281.386 115.463 288.283C115.694 291.731 116.045 295.171 116.677 298.524C117.267 301.877 118.161 305.21 119.961 307.886L119.876 308.004C117.855 305.498 116.805 302.089 116.032 298.747C115.275 295.365 114.823 291.895 114.483 288.42C113.816 281.461 113.657 274.45 113.672 267.457C113.711 260.461 113.967 253.473 114.347 246.5C114.732 239.527 115.232 232.566 115.893 225.628L116.02 225.65Z" fill="#ADADAD"/>
<path d="M157.403 160.513C157.403 160.513 162.219 159.078 163.962 164.407" stroke="#E3923C" stroke-miterlimit="10" stroke-linecap="round"/>
<path d="M159.811 164.151L161.758 161.281" stroke="#E3923C" stroke-miterlimit="10" stroke-linecap="round"/>
<path d="M228.994 237.795C223.685 214.908 205.846 208.322 205.662 208.254L204.716 206.623C204.973 206.672 224.664 214.052 230.111 237.536L228.994 237.795Z" fill="#FF8464"/>
<path d="M228.771 258.046C226.132 257.7 223.758 256.389 222.051 254.329C220.261 252.166 219.419 249.434 219.682 246.638C220.028 242.963 222.326 239.698 225.681 238.117C225.937 237.997 226.244 238.081 226.401 238.316C226.559 238.551 226.522 238.867 226.313 239.059C224.598 240.634 223.535 242.768 223.317 245.07C222.834 250.213 226.63 254.782 231.765 255.272H231.766C233.423 255.428 235.102 255.132 236.622 254.415C236.879 254.295 237.185 254.379 237.342 254.614C237.5 254.849 237.463 255.165 237.254 255.356C235.059 257.371 232.111 258.367 229.163 258.09C229.032 258.078 228.901 258.063 228.771 258.046Z" fill="#C9C9C9"/>
<path d="M228.771 258.046C226.132 257.7 223.758 256.389 222.051 254.329C220.261 252.166 219.419 249.434 219.682 246.638C220.028 242.963 222.326 239.698 225.681 238.117C225.937 237.997 226.244 238.081 226.401 238.316C226.559 238.551 226.522 238.867 226.313 239.059C224.598 240.634 223.535 242.768 223.317 245.07C222.834 250.213 226.63 254.782 231.765 255.272H231.766C233.423 255.428 235.102 255.132 236.622 254.415C236.879 254.295 237.185 254.379 237.342 254.614C237.5 254.849 237.463 255.165 237.254 255.356C235.059 257.371 232.111 258.367 229.163 258.09C229.032 258.078 228.901 258.063 228.771 258.046Z" fill="#264473"/>
<path d="M230.189 257.199C224.616 256.468 220.565 251.433 221.095 245.791C221.639 240.019 226.776 235.766 232.547 236.308C238.321 236.837 242.572 241.989 242.03 247.76V247.761C241.486 253.532 236.349 257.786 230.578 257.242C230.448 257.231 230.318 257.216 230.189 257.199Z" fill="#FF9A6C"/>
<path d="M230.555 254.424C226.466 253.887 223.493 250.193 223.882 246.054C224.281 241.819 228.05 238.698 232.285 239.096C236.522 239.484 239.641 243.264 239.243 247.499V247.5C238.844 251.735 235.075 254.856 230.84 254.457C230.745 254.447 230.649 254.436 230.555 254.424Z" fill="#FF725E"/>
<path d="M131.085 317.406L125.106 316.834C122.771 316.611 120.669 315.487 119.186 313.669C117.703 311.853 117.025 309.567 117.275 307.236L122.54 258.184C123.356 253.699 126.769 250.429 131.242 249.811C135.712 249.194 139.888 251.414 141.873 255.471L160.673 301.658C161.621 303.985 161.517 306.608 160.387 308.853C159.258 311.099 157.214 312.746 154.78 313.373L150.469 314.484L150.183 313.373L154.494 312.262C156.607 311.718 158.382 310.287 159.362 308.338C160.342 306.389 160.433 304.112 159.611 302.09L140.827 255.939C139.08 252.372 135.373 250.398 131.399 250.947C127.425 251.496 124.393 254.402 123.674 258.348L118.415 307.358C118.198 309.382 118.786 311.366 120.074 312.944C121.362 314.522 123.187 315.498 125.214 315.691L131.193 316.263L131.085 317.406Z" fill="#FF8464"/>
<path d="M147.927 314.293C147.814 312.794 148.937 311.488 150.435 311.374C151.934 311.261 153.24 312.384 153.354 313.883C153.467 315.382 152.344 316.688 150.846 316.802C149.347 316.914 148.041 315.791 147.927 314.293Z" fill="#FF8464"/>
<path d="M128.52 316.881C128.407 315.382 129.53 314.075 131.028 313.962C132.527 313.849 133.833 314.972 133.947 316.47C134.06 317.969 132.937 319.275 131.439 319.389C129.939 319.503 128.633 318.38 128.52 316.881Z" fill="#FF8464"/>
<path d="M122.566 267.35L121.573 266.777C124.842 261.117 128.657 258.09 132.913 257.78C139.734 257.294 145.125 263.969 145.349 264.254L144.449 264.966C144.398 264.901 139.213 258.463 132.99 258.924C129.14 259.206 125.632 262.041 122.566 267.35Z" fill="#FF8464"/>
<path d="M129.738 250.378C129.694 250.002 125.964 212.724 159.804 205.262L159.263 206.652C126.424 213.893 130.835 249.88 130.877 250.246L129.738 250.378Z" fill="#FF8464"/>
<path d="M182.688 155.743C182.664 156.956 182.078 157.928 181.379 157.914C180.68 157.9 180.134 156.905 180.158 155.693C180.182 154.48 180.768 153.508 181.467 153.522C182.166 153.536 182.712 154.531 182.688 155.743Z" fill="#1A1A1A"/>
<path d="M205.996 154.287C205.972 155.5 205.386 156.471 204.687 156.457C203.988 156.443 203.442 155.449 203.466 154.236C203.49 153.023 204.076 152.052 204.775 152.066C205.474 152.08 206.021 153.074 205.996 154.287Z" fill="#1A1A1A"/>
<path d="M195.497 150.845C195.497 150.845 198.194 158.721 199.705 164.116C201.215 169.511 191.936 168.54 191.936 168.54" stroke="#E3923C" stroke-miterlimit="10" stroke-linecap="round"/>
<path d="M181.383 171.273C181.383 171.273 184.867 179.881 193.476 177.422" stroke="#E3923C" stroke-miterlimit="10" stroke-linecap="round"/>
<path d="M136.909 334.892C136.909 334.892 130.482 334.544 126.779 342.667C126.779 342.667 134.605 336.569 136.909 334.892Z" fill="#E3923C"/>
<path d="M218.695 319.489L248.84 320.8L263.137 336.413L243.514 323.233L218.695 319.489Z" fill="#E3923C"/>
<path d="M243.442 306.657L251.343 304.643L263.689 315.739L251.369 306.044L243.442 306.657Z" fill="#E3923C"/>
<path d="M253.343 311.819C254.475 312.271 255.423 312.938 256.417 313.562C257.396 314.201 258.329 314.903 259.282 315.576C260.193 316.305 261.128 317.003 262.015 317.763C262.903 318.522 263.782 319.292 264.603 320.139L264.573 320.179L258.983 315.976L256.187 313.876C255.249 313.197 254.318 312.455 253.345 311.87L253.343 311.819Z" fill="#E3923C"/>
<path d="M254.024 317.06C255.156 317.512 256.104 318.179 257.098 318.803C258.077 319.442 259.01 320.143 259.963 320.817C260.874 321.546 261.809 322.244 262.696 323.004C263.584 323.762 264.463 324.533 265.284 325.38L265.254 325.42L259.664 321.217L256.868 319.117C255.93 318.438 254.998 317.696 254.026 317.111L254.024 317.06Z" fill="#E3923C"/>
<path d="M254.367 323.008C255.499 323.46 256.447 324.127 257.441 324.751C258.42 325.39 259.353 326.092 260.306 326.765C261.217 327.494 262.152 328.192 263.039 328.952C263.927 329.71 264.806 330.481 265.627 331.328L265.597 331.368L260.007 327.165L257.211 325.065C256.273 324.386 255.342 323.644 254.369 323.059L254.367 323.008Z" fill="#E3923C"/>
<path d="M174.227 157.884C174.215 157.718 174.209 157.551 174.208 157.382C174.179 153.05 177.666 149.515 181.998 149.485C186.33 149.456 189.865 152.943 189.895 157.275C189.924 161.607 186.436 165.143 182.105 165.172C177.941 165.201 174.513 161.98 174.227 157.884Z" stroke="white" stroke-miterlimit="10" stroke-linecap="round"/>
<path d="M215.139 154.977C215.168 159.309 211.681 162.845 207.349 162.874C203.017 162.903 199.481 159.416 199.452 155.084C199.423 150.752 202.911 147.217 207.242 147.187C211.574 147.157 215.11 150.645 215.139 154.977Z" stroke="white" stroke-miterlimit="10" stroke-linecap="round"/>
<path d="M189.838 155.619C189.838 155.619 194.859 150.771 199.452 155.083" stroke="white" stroke-miterlimit="10" stroke-linecap="round"/>
<path d="M163.599 154.884L174.207 157.382" stroke="white" stroke-miterlimit="10" stroke-linecap="round"/>
<path d="M202.973 144.18C202.973 144.18 205.602 141.092 209.699 144.411" stroke="#1A1A1A" stroke-miterlimit="10" stroke-linecap="round"/>
<path d="M175.907 146.808C175.907 146.808 178.999 143.38 185.414 146.087" stroke="#1A1A1A" stroke-miterlimit="10" stroke-linecap="round"/>
<path d="M176.69 279.178L156.622 281.056L156.634 273.561L176.701 271.683L176.69 279.178Z" fill="#FF8464"/>
<path d="M139.641 59.8892H47.8411V116.153H139.641V59.8892Z" fill="#FFDBCB"/>
<path d="M106.08 110.4L124.788 133.263V108.257L106.08 110.4Z" fill="#FFDBCB"/>
<path d="M60.0811 73.356H96.0811" stroke="#FFDBCB" stroke-miterlimit="10"/>
<path d="M60.0811 81.876H127.401" stroke="#FFDBCB" stroke-miterlimit="10"/>
<path d="M60.0811 90.396H127.401" stroke="#FFDBCB" stroke-miterlimit="10"/>
<path d="M60.0811 98.916H127.401" stroke="#FFDBCB" stroke-miterlimit="10"/>
</g>
<defs>
<clipPath id="clip0_227_168">
<rect width="500" height="500" fill="white"/>
</clipPath>
</defs>
</svg>
